<?xml version="1.0" encoding="utf-8"?>
<!-- Generator: Adobe Illustrator 19.1.0, SVG Export Plug-In . SVG Version: 6.00 Build 0)  -->
<svg version="1.1" id="wordmark" xmlns="http://www.w3.org/2000/svg" xmlns:xlink="http://www.w3.org/1999/xlink" x="0px" y="0px"
	 viewBox="-54.4 325 343 159.6" style="enable-background:new -54.4 325 343 159.6;" xml:space="preserve">
<style type="text/css">
	.st0{fill:#545356;}
</style>
<filter id="blur-effect-1">
    <feGaussianBlur stdDeviation="10" />
</filter>
<g id="wordmark_parent_group">
	<g>
		<ellipse cx="115" cy="405" rx="140" ry="60" style="fill:rgba(255,255,255,1); stroke:none; stroke-width:none; filter:url(#blur-effect-1);" />
	</g>
	<g>
		<path class="st0" d="M-16.7,427.9v-16.7h4.3v16.7H-16.7z"/>
		<path class="st0" d="M20.2,427.9l-7.1-9.7v9.7H8.8v-16.7h4.4l6.8,9.2v-9.2h4.3v16.7H20.2z"/>
		<path class="st0" d="M44,425.6l2.3-3.2c1.2,1.2,3.1,2.2,5.3,2.2c1.5,0,2.4-0.6,2.4-1.4c0-2.3-9.5-0.5-9.5-6.9
			c0-2.8,2.4-5.3,6.7-5.3c2.7,0,5,0.8,6.8,2.3l-2.4,3.1c-1.4-1.2-3.2-1.7-4.9-1.7c-1.3,0-1.8,0.5-1.8,1.2c0,2.1,9.4,0.6,9.4,6.8
			c0,3.4-2.5,5.6-7,5.6C48,428.2,45.6,427.2,44,425.6z"/>
		<path class="st0" d="M80.5,427.9v-13h-4.7v-3.7h13.7v3.8h-4.7v13h-4.3V427.9z"/>
		<path class="st0" d="M108.3,427.9v-16.7h4.3v16.7H108.3z"/>
		<path class="st0" d="M136.1,427.9v-13h-4.7v-3.7h13.7v3.8h-4.7v13h-4.3V427.9z"/>
		<path class="st0" d="M163.9,421.2v-10h4.4v9.8c0,2,1.2,3.4,3.5,3.4s3.5-1.4,3.5-3.4v-9.8h4.4v9.9c0,4.2-2.5,7.1-7.9,7.1
			S163.9,425.3,163.9,421.2z"/>
		<path class="st0" d="M203.7,427.9v-13H199v-3.7h13.7v3.8H208v13h-4.3V427.9z"/>
		<path class="st0" d="M232.5,427.9v-16.7h12.3v3.8h-7.9v2.6h7.8v3.8h-7.8v2.8h7.9v3.8h-12.3V427.9z"/>
	</g>
	<g>
		<path class="st0" d="M-15.9,448.1v-5.3h-1V442h1v-0.5c0-1.3,0.7-2,1.8-2c0.5,0,0.9,0.1,1.3,0.5l-0.4,0.6c-0.2-0.2-0.4-0.3-0.8-0.3
			c-0.6,0-1,0.4-1,1.2v0.5h1.2v0.8H-15v5.3H-15.9z"/>
		<path class="st0" d="M-8,445c0-1.8,1.2-3.2,3-3.2s3,1.4,3,3.2c0,1.8-1.2,3.2-3,3.2S-8,446.8-8,445z M-2.9,445c0-1.2-0.7-2.4-2-2.4
			s-2,1.1-2,2.4c0,1.3,0.7,2.4,2,2.4S-2.9,446.3-2.9,445z"/>
		<path class="st0" d="M4.6,448.1V442h0.9v1c0.5-0.6,1.2-1.1,2-1.1v1c-0.1,0-0.2,0-0.4,0c-0.6,0-1.4,0.5-1.7,1v4.3L4.6,448.1
			L4.6,448.1z"/>
		<path class="st0" d="M22,448.1v-8.5h3.8c1.5,0,2.4,0.9,2.4,2.2c0,1.1-0.7,1.8-1.5,1.9c0.9,0.1,1.6,1.1,1.6,2.1
			c0,1.4-0.9,2.3-2.4,2.3H22z M27.1,441.9c0-0.8-0.5-1.4-1.5-1.4h-2.5v2.7h2.5C26.6,443.3,27.1,442.7,27.1,441.9z M27.2,445.7
			c0-0.8-0.5-1.5-1.6-1.5H23v2.9h2.6C26.6,447.2,27.2,446.6,27.2,445.7z"/>
		<path class="st0" d="M35,448.1v-8.5h1.1v8.5H35z"/>
		<path class="st0" d="M42.6,443.9c0-2.5,1.7-4.4,4.2-4.4s4.2,1.9,4.2,4.4s-1.7,4.4-4.2,4.4C44.3,448.2,42.6,446.4,42.6,443.9z
			 M49.9,443.9c0-2-1.2-3.4-3.1-3.4c-1.9,0-3.1,1.5-3.1,3.4c0,2,1.2,3.4,3.1,3.4C48.7,447.3,49.9,445.8,49.9,443.9z"/>
		<path class="st0" d="M64.8,448.1v-7l-2.9,7h-0.4l-2.9-7v7h-1.1v-8.5H59l2.6,6.4l2.6-6.4h1.5v8.5H64.8z"/>
		<path class="st0" d="M72.8,448.1v-8.5h5.5v0.9h-4.5v2.7h4.4v0.9h-4.4v2.9h4.5v0.9h-5.5V448.1z"/>
		<path class="st0" d="M85,448.1v-8.5h2.9c2.6,0,4.3,1.8,4.3,4.2s-1.7,4.2-4.3,4.2H85V448.1z M91.1,443.9c0-1.8-1.2-3.3-3.2-3.3H86
			v6.6h1.8C89.9,447.2,91.1,445.7,91.1,443.9z"/>
		<path class="st0" d="M98.8,448.1v-8.5h1.1v8.5H98.8z"/>
		<path class="st0" d="M106.5,443.9c0-2.6,1.9-4.4,4.3-4.4c1.5,0,2.5,0.7,3.2,1.7l-0.9,0.5c-0.5-0.7-1.4-1.2-2.3-1.2
			c-1.9,0-3.3,1.4-3.3,3.4s1.4,3.4,3.3,3.4c1,0,1.8-0.5,2.3-1.2l0.9,0.5c-0.7,1-1.7,1.7-3.2,1.7
			C108.4,448.2,106.5,446.5,106.5,443.9z"/>
		<path class="st0" d="M126.3,448.1l-0.7-1.9h-4.2l-0.7,1.9h-1.2l3.4-8.5h1.3l3.4,8.5H126.3z M123.5,440.7l-1.8,4.5h3.6L123.5,440.7
			z"/>
		<path class="st0" d="M133.6,448.1v-8.5h1.1v7.5h3.9v0.9h-5V448.1z"/>
		<path class="st0" d="M152.8,446.9l0.6-0.8c0.6,0.6,1.5,1.2,2.7,1.2c1.5,0,2-0.8,2-1.5c0-2.2-5-1-5-4c0-1.4,1.2-2.3,2.9-2.3
			c1.3,0,2.3,0.4,3,1.2l-0.6,0.8c-0.6-0.7-1.5-1-2.4-1c-1,0-1.7,0.5-1.7,1.3c0,1.9,5,0.8,5,4c0,1.2-0.8,2.5-3.1,2.5
			C154.5,448.2,153.5,447.7,152.8,446.9z"/>
		<path class="st0" d="M165.3,443.9c0-2.6,1.9-4.4,4.3-4.4c1.5,0,2.5,0.7,3.2,1.7l-0.9,0.5c-0.5-0.7-1.4-1.2-2.3-1.2
			c-1.8,0-3.3,1.4-3.3,3.4s1.4,3.4,3.3,3.4c1,0,1.8-0.5,2.3-1.2l0.9,0.5c-0.7,1-1.7,1.7-3.2,1.7
			C167.2,448.2,165.3,446.5,165.3,443.9z"/>
		<path class="st0" d="M179.2,448.1v-8.5h1.1v8.5H179.2z"/>
		<path class="st0" d="M187.2,448.1v-8.5h5.5v0.9h-4.5v2.7h4.4v0.9h-4.4v2.9h4.5v0.9h-5.5V448.1z"/>
		<path class="st0" d="M205.3,448.1l-4.9-6.7v6.7h-1.1v-8.5h1.1l4.9,6.6v-6.6h1.1v8.5H205.3z"/>
		<path class="st0" d="M213,443.9c0-2.6,1.9-4.4,4.3-4.4c1.5,0,2.5,0.7,3.2,1.7l-0.9,0.5c-0.5-0.7-1.4-1.2-2.3-1.2
			c-1.9,0-3.3,1.4-3.3,3.4s1.4,3.4,3.3,3.4c1,0,1.8-0.5,2.3-1.2l0.9,0.5c-0.7,1-1.7,1.7-3.2,1.7C214.9,448.2,213,446.5,213,443.9z"
			/>
		<path class="st0" d="M226.8,448.1v-8.5h5.5v0.9h-4.5v2.7h4.4v0.9h-4.4v2.9h4.5v0.9h-5.5V448.1z"/>
		<path class="st0" d="M238.5,446.9l0.6-0.8c0.6,0.6,1.5,1.2,2.7,1.2c1.5,0,2-0.8,2-1.5c0-2.2-5-1-5-4c0-1.4,1.2-2.3,2.9-2.3
			c1.3,0,2.3,0.4,3,1.2l-0.6,0.8c-0.6-0.7-1.5-1-2.4-1c-1,0-1.7,0.5-1.7,1.3c0,1.9,5,0.8,5,4c0,1.2-0.8,2.5-3.1,2.5
			C240.3,448.2,239.2,447.7,238.5,446.9z"/>
	</g>
	<g>
		<g>
			<g>
				<path class="st0" d="M50.2,359v31.4H79v8.1H42V359H50.2z"/>
				<path class="st0" d="M88.4,398.4v-32H70.9V359h43.3v7.4H96.7v32H88.4z"/>
				<path class="st0" d="M132.4,359v39.4h-8.2V359H132.4z"/>
			</g>
			<path class="st0" d="M142.9,359h8.3v20.5c0,9.5,3.3,11.6,16.3,11.6s16.2-2.1,16.2-11.6V359h8.3v20.5c0,14.3-6.7,19.7-24.5,19.7
				s-24.6-5.4-24.6-19.7V359z"/>
			<path class="st0" d="M232.2,391.2c4.9,0,6.4-1.5,6.4-3.7c0-2.7-2.4-4-8.1-4.5l-17.2-1.5c-8.9-0.7-14.3-3.9-14.3-11.2
				c0-8.4,7.1-11.4,15.2-11.4h30.3v7.4h-31c-3.9,0-6.1,1-6.1,3.7c0,2.2,1.5,3.4,8,3.9l16.3,1.4c9.3,0.8,15.4,3.7,15.4,11.7
				c0,6.7-4.3,11.5-15.5,11.5h-32.8v-7.3H232.2z"/>
		</g>
		<path class="st0" d="M13.7,361.4L13.7,361.4c-1.1-1.7-3.1-2.9-5.3-2.9s-4.2,1.2-5.3,2.9l0,0l-22.4,37h9.8l5-8.3h26l4.9,8.3h9.7
			L13.7,361.4z M-1,383.9l9.3-16.2l9.3,16.2H-1z"/>
	</g>
</g>
</svg>
